<svg width="25" height="25" viewBox="0 0 25 25" fill="none" xmlns="http://www.w3.org/2000/svg">
<path fill-rule="evenodd" clip-rule="evenodd" d="M19.0436 5.35756C18.6198 5.43294 18.0408 5.62458 17.1967 5.90592L10.2772 8.21244C9.32347 8.53034 8.62949 8.76188 8.12844 8.96188C7.6078 9.1697 7.38508 9.31126 7.29493 9.41104C6.77889 9.98216 6.77889 10.8512 7.29493 11.4223C7.38508 11.5221 7.6078 11.6636 8.12844 11.8715C8.62949 12.0715 9.32348 12.303 10.2772 12.6209C10.2923 12.6259 10.3073 12.6309 10.322 12.6358C10.6604 12.7486 10.8941 12.8264 11.1034 12.9442C11.502 13.1685 11.8315 13.498 12.0558 13.8966C12.1736 14.1059 12.2515 14.3396 12.3642 14.678C12.3691 14.6927 12.3741 14.7077 12.3791 14.7228C12.697 15.6765 12.9286 16.3705 13.1286 16.8716C13.3364 17.3922 13.4779 17.6149 13.5777 17.7051C14.1488 18.2211 15.0179 18.2211 15.589 17.7051C15.6887 17.6149 15.8303 17.3922 16.0381 16.8716C16.2381 16.3705 16.4697 15.6765 16.7876 14.7228L19.0941 7.80329C19.3754 6.95925 19.5671 6.38018 19.6425 5.95644C19.7185 5.52907 19.6435 5.43199 19.6058 5.39425C19.568 5.35652 19.4709 5.28153 19.0436 5.35756ZM18.8684 4.37301C19.3782 4.28233 19.9136 4.28786 20.3129 4.68715C20.7121 5.08643 20.7177 5.6218 20.627 6.13158C20.5372 6.63636 20.3208 7.28551 20.0564 8.07868L20.0428 8.11952L17.7363 15.0391L17.7305 15.0562C17.4195 15.9892 17.179 16.7109 16.9669 17.2423C16.7613 17.7573 16.5498 18.1846 16.2594 18.4471C15.3075 19.3071 13.8592 19.3071 12.9073 18.4471C12.6168 18.1846 12.4054 17.7573 12.1998 17.2423C11.9877 16.7109 11.7472 15.9893 11.4362 15.0563L11.4304 15.0391C11.297 14.6389 11.2493 14.5024 11.1844 14.3871C11.0498 14.1479 10.8521 13.9502 10.6129 13.8156C10.4976 13.7507 10.3611 13.703 9.96094 13.5696L9.94381 13.5639C9.01078 13.2529 8.28907 13.0123 7.75772 12.8002C7.2427 12.5946 6.81538 12.3832 6.55294 12.0927C5.69288 11.1409 5.69288 9.69248 6.55294 8.74062C6.81538 8.45017 7.2427 8.23871 7.75772 8.03314C8.28907 7.82104 9.01076 7.58048 9.94376 7.26948L9.96094 7.26376L16.8805 4.95724L16.9213 4.94362C17.7145 4.67921 18.3637 4.46281 18.8684 4.37301Z" fill="#FF8D83"/>
</svg>
